<svg xmlns="http://www.w3.org/2000/svg" width="804" height="234" viewBox="0 0 804 234" role="img" aria-label="Activity: 1,659 contributions in the last year, over 65 active days."><rect width="804" height="234" rx="9" fill="#8E1E18"/><rect x="3" y="3" width="798" height="6" fill="#B3352C"/><rect x="3" y="225" width="798" height="6" fill="#4E0F0B"/><rect x="15" y="15" width="774" height="204" fill="#5C74B8"/><rect x="18" y="18" width="768" height="198" fill="#0F141C"/><path d="M18 21h768v3h-768zM18 30h768v3h-768zM18 39h768v3h-768zM18 48h768v3h-768zM18 57h768v3h-768zM18 66h768v3h-768zM18 75h768v3h-768zM18 84h768v3h-768zM18 93h768v3h-768zM18 102h768v3h-768zM18 111h768v3h-768zM18 120h768v3h-768zM18 129h768v3h-768zM18 138h768v3h-768zM18 147h768v3h-768zM18 156h768v3h-768zM18 165h768v3h-768zM18 174h768v3h-768zM18 183h768v3h-768zM18 192h768v3h-768zM18 201h768v3h-768zM18 210h768v3h-768z" fill="#0C1017"/><path d="M18 18h3v3h-3zM18 18h768v3h-768zM18 21h3v3h-3zM18 24h3v3h-3zM18 27h3v3h-3zM18 30h3v3h-3zM18 33h3v3h-3zM18 36h3v3h-3zM18 39h3v3h-3zM18 42h3v3h-3zM18 45h3v3h-3zM18 48h3v3h-3zM18 51h3v3h-3zM18 54h3v3h-3zM18 57h3v3h-3zM18 60h3v3h-3zM18 63h3v3h-3zM18 66h3v3h-3zM18 69h3v3h-3zM18 72h3v3h-3zM18 75h3v3h-3zM18 78h3v3h-3zM18 81h3v3h-3zM18 84h3v3h-3zM18 87h3v3h-3zM18 90h3v3h-3zM18 93h3v3h-3zM18 96h3v3h-3zM18 99h3v3h-3zM18 102h3v3h-3zM18 105h3v3h-3zM18 108h3v3h-3zM18 111h3v3h-3zM18 114h3v3h-3zM18 117h3v3h-3zM18 120h3v3h-3zM18 123h3v3h-3zM18 126h3v3h-3zM18 129h3v3h-3zM18 132h3v3h-3zM18 135h3v3h-3zM18 138h3v3h-3zM18 141h3v3h-3zM18 144h3v3h-3zM18 147h3v3h-3zM18 150h3v3h-3zM18 153h3v3h-3zM18 156h3v3h-3zM18 159h3v3h-3zM18 162h3v3h-3zM18 165h3v3h-3zM18 168h3v3h-3zM18 171h3v3h-3zM18 174h3v3h-3zM18 177h3v3h-3zM18 180h3v3h-3zM18 183h3v3h-3zM18 186h3v3h-3zM18 189h3v3h-3zM18 192h3v3h-3zM18 195h3v3h-3zM18 198h3v3h-3zM18 201h3v3h-3zM18 204h3v3h-3zM18 207h3v3h-3zM18 210h3v3h-3zM18 213h3v3h-3z" fill="#050810"/><rect x="24" y="24" width="756" height="33" fill="#22304F"/><path d="M24 24h756v3h-756z" fill="#3A4A72"/><path d="M36 30h9v3h-9zM54 30h9v3h-9zM69 30h15v3h-15zM87 30h15v3h-15zM105 30h3v3h-3zM117 30h3v3h-3zM123 30h15v3h-15zM141 30h15v3h-15zM159 30h3v3h-3zM171 30h3v3h-3zM33 33h3v3h-3zM45 33h3v3h-3zM51 33h3v3h-3zM63 33h3v3h-3zM75 33h3v3h-3zM93 33h3v3h-3zM105 33h3v3h-3zM117 33h3v3h-3zM129 33h3v3h-3zM147 33h3v3h-3zM159 33h3v3h-3zM171 33h3v3h-3zM33 36h3v3h-3zM45 36h3v3h-3zM51 36h3v3h-3zM75 36h3v3h-3zM93 36h3v3h-3zM105 36h3v3h-3zM117 36h3v3h-3zM129 36h3v3h-3zM147 36h3v3h-3zM162 36h3v3h-3zM168 36h3v3h-3zM33 39h15v3h-15zM51 39h3v3h-3zM75 39h3v3h-3zM93 39h3v3h-3zM105 39h3v3h-3zM117 39h3v3h-3zM129 39h3v3h-3zM147 39h3v3h-3zM165 39h3v3h-3zM33 42h3v3h-3zM45 42h3v3h-3zM51 42h3v3h-3zM75 42h3v3h-3zM93 42h3v3h-3zM105 42h3v3h-3zM117 42h3v3h-3zM129 42h3v3h-3zM147 42h3v3h-3zM165 42h3v3h-3zM33 45h3v3h-3zM45 45h3v3h-3zM51 45h3v3h-3zM63 45h3v3h-3zM75 45h3v3h-3zM93 45h3v3h-3zM108 45h3v3h-3zM114 45h3v3h-3zM129 45h3v3h-3zM147 45h3v3h-3zM165 45h3v3h-3zM33 48h3v3h-3zM45 48h3v3h-3zM54 48h9v3h-9zM75 48h3v3h-3zM87 48h15v3h-15zM111 48h3v3h-3zM123 48h15v3h-15zM147 48h3v3h-3zM165 48h3v3h-3z" fill="#DCE6F5"/><path d="M561 30h3v3h-3zM597 30h6v3h-6zM609 30h15v3h-15zM630 30h9v3h-9zM558 33h6v3h-6zM594 33h3v3h-3zM609 33h3v3h-3zM627 33h3v3h-3zM639 33h3v3h-3zM561 36h3v3h-3zM591 36h3v3h-3zM609 36h12v3h-12zM627 36h3v3h-3zM639 36h3v3h-3zM666 36h9v3h-9zM699 36h3v3h-3zM711 36h3v3h-3zM720 36h9v3h-9zM738 36h9v3h-9zM753 36h3v3h-3zM759 36h6v3h-6zM561 39h3v3h-3zM591 39h12v3h-12zM621 39h3v3h-3zM630 39h12v3h-12zM675 39h3v3h-3zM699 39h3v3h-3zM711 39h3v3h-3zM717 39h3v3h-3zM729 39h3v3h-3zM747 39h3v3h-3zM753 39h6v3h-6zM765 39h3v3h-3zM561 42h3v3h-3zM576 42h6v3h-6zM591 42h3v3h-3zM603 42h3v3h-3zM621 42h3v3h-3zM639 42h3v3h-3zM666 42h12v3h-12zM699 42h3v3h-3zM711 42h3v3h-3zM717 42h15v3h-15zM738 42h12v3h-12zM753 42h3v3h-3zM561 45h3v3h-3zM576 45h6v3h-6zM591 45h3v3h-3zM603 45h3v3h-3zM609 45h3v3h-3zM621 45h3v3h-3zM636 45h3v3h-3zM663 45h3v3h-3zM675 45h3v3h-3zM702 45h12v3h-12zM717 45h3v3h-3zM735 45h3v3h-3zM747 45h3v3h-3zM753 45h3v3h-3zM558 48h9v3h-9zM576 48h3v3h-3zM594 48h9v3h-9zM612 48h9v3h-9zM630 48h6v3h-6zM666 48h12v3h-12zM711 48h3v3h-3zM720 48h9v3h-9zM738 48h12v3h-12zM753 48h3v3h-3zM702 51h9v3h-9z" fill="#DCE6F5"/><rect x="33" y="84" width="9" height="9" fill="#19212E"/><rect x="33" y="96" width="9" height="9" fill="#19212E"/><rect x="33" y="108" width="9" height="9" fill="#19212E"/><rect x="33" y="120" width="9" height="9" fill="#19212E"/><path d="M36 57h9v3h-9zM54 57h9v3h-9zM69 57h15v3h-15zM33 60h3v3h-3zM45 60h3v3h-3zM51 60h3v3h-3zM63 60h3v3h-3zM75 60h3v3h-3zM33 63h3v3h-3zM45 63h3v3h-3zM51 63h3v3h-3zM75 63h3v3h-3zM33 66h3v3h-3zM45 66h3v3h-3zM51 66h3v3h-3zM75 66h3v3h-3zM33 69h3v3h-3zM45 69h3v3h-3zM51 69h3v3h-3zM75 69h3v3h-3zM33 72h3v3h-3zM45 72h3v3h-3zM51 72h3v3h-3zM63 72h3v3h-3zM75 72h3v3h-3zM36 75h9v3h-9zM54 75h9v3h-9zM75 75h3v3h-3z" fill="#8A9AC0"/><rect x="33" y="132" width="9" height="9" fill="#19212E"/><rect x="33" y="144" width="9" height="9" fill="#1F4A38"/><rect x="33" y="156" width="9" height="9" fill="#19212E"/><rect x="45" y="84" width="9" height="9" fill="#19212E"/><rect x="45" y="96" width="9" height="9" fill="#19212E"/><rect x="45" y="108" width="9" height="9" fill="#19212E"/><rect x="45" y="120" width="9" height="9" fill="#19212E"/><rect x="45" y="132" width="9" height="9" fill="#19212E"/><rect x="45" y="144" width="9" height="9" fill="#19212E"/><rect x="45" y="156" width="9" height="9" fill="#19212E"/><rect x="57" y="84" width="9" height="9" fill="#19212E"/><rect x="57" y="96" width="9" height="9" fill="#19212E"/><rect x="57" y="108" width="9" height="9" fill="#19212E"/><rect x="57" y="120" width="9" height="9" fill="#19212E"/><rect x="57" y="132" width="9" height="9" fill="#19212E"/><rect x="57" y="144" width="9" height="9" fill="#19212E"/><rect x="57" y="156" width="9" height="9" fill="#19212E"/><rect x="69" y="84" width="9" height="9" fill="#19212E"/><rect x="69" y="96" width="9" height="9" fill="#19212E"/><rect x="69" y="108" width="9" height="9" fill="#19212E"/><rect x="69" y="120" width="9" height="9" fill="#19212E"/><rect x="69" y="132" width="9" height="9" fill="#19212E"/><rect x="69" y="144" width="9" height="9" fill="#19212E"/><rect x="69" y="156" width="9" height="9" fill="#19212E"/><rect x="81" y="84" width="9" height="9" fill="#19212E"/><rect x="81" y="96" width="9" height="9" fill="#19212E"/><rect x="81" y="108" width="9" height="9" fill="#19212E"/><rect x="81" y="120" width="9" height="9" fill="#19212E"/><rect x="81" y="132" width="9" height="9" fill="#19212E"/><rect x="81" y="144" width="9" height="9" fill="#19212E"/><rect x="81" y="156" width="9" height="9" fill="#19212E"/><rect x="93" y="84" width="9" height="9" fill="#19212E"/><rect x="93" y="96" width="9" height="9" fill="#19212E"/><rect x="93" y="108" width="9" height="9" fill="#19212E"/><rect x="93" y="120" width="9" height="9" fill="#19212E"/><rect x="93" y="132" width="9" height="9" fill="#19212E"/><rect x="93" y="144" width="9" height="9" fill="#19212E"/><rect x="93" y="156" width="9" height="9" fill="#19212E"/><rect x="105" y="84" width="9" height="9" fill="#19212E"/><rect x="105" y="96" width="9" height="9" fill="#19212E"/><rect x="105" y="108" width="9" height="9" fill="#19212E"/><rect x="105" y="120" width="9" height="9" fill="#19212E"/><rect x="105" y="132" width="9" height="9" fill="#19212E"/><rect x="105" y="144" width="9" height="9" fill="#19212E"/><rect x="105" y="156" width="9" height="9" fill="#19212E"/><rect x="117" y="84" width="9" height="9" fill="#19212E"/><rect x="117" y="96" width="9" height="9" fill="#19212E"/><rect x="117" y="108" width="9" height="9" fill="#19212E"/><rect x="117" y="120" width="9" height="9" fill="#19212E"/><rect x="117" y="132" width="9" height="9" fill="#19212E"/><rect x="117" y="144" width="9" height="9" fill="#19212E"/><rect x="117" y="156" width="9" height="9" fill="#19212E"/><rect x="129" y="84" width="9" height="9" fill="#19212E"/><rect x="129" y="96" width="9" height="9" fill="#19212E"/><rect x="129" y="108" width="9" height="9" fill="#19212E"/><rect x="129" y="120" width="9" height="9" fill="#19212E"/><rect x="129" y="132" width="9" height="9" fill="#19212E"/><rect x="129" y="144" width="9" height="9" fill="#19212E"/><rect x="129" y="156" width="9" height="9" fill="#19212E"/><rect x="141" y="84" width="9" height="9" fill="#19212E"/><rect x="141" y="96" width="9" height="9" fill="#19212E"/><path d="M141 57h12v3h-12zM159 57h15v3h-15zM180 57h9v3h-9zM141 60h3v3h-3zM153 60h3v3h-3zM159 60h3v3h-3zM177 60h3v3h-3zM189 60h3v3h-3zM141 63h3v3h-3zM153 63h3v3h-3zM159 63h3v3h-3zM177 63h3v3h-3zM141 66h3v3h-3zM153 66h3v3h-3zM159 66h12v3h-12zM177 66h3v3h-3zM141 69h3v3h-3zM153 69h3v3h-3zM159 69h3v3h-3zM177 69h3v3h-3zM141 72h3v3h-3zM153 72h3v3h-3zM159 72h3v3h-3zM177 72h3v3h-3zM189 72h3v3h-3zM141 75h12v3h-12zM159 75h15v3h-15zM180 75h9v3h-9z" fill="#8A9AC0"/><rect x="141" y="108" width="9" height="9" fill="#19212E"/><rect x="141" y="120" width="9" height="9" fill="#19212E"/><rect x="141" y="132" width="9" height="9" fill="#19212E"/><rect x="141" y="144" width="9" height="9" fill="#19212E"/><rect x="141" y="156" width="9" height="9" fill="#19212E"/><rect x="153" y="84" width="9" height="9" fill="#19212E"/><rect x="153" y="96" width="9" height="9" fill="#19212E"/><rect x="153" y="108" width="9" height="9" fill="#19212E"/><rect x="153" y="120" width="9" height="9" fill="#19212E"/><rect x="153" y="132" width="9" height="9" fill="#19212E"/><rect x="153" y="144" width="9" height="9" fill="#19212E"/><rect x="153" y="156" width="9" height="9" fill="#19212E"/><rect x="165" y="84" width="9" height="9" fill="#19212E"/><rect x="165" y="96" width="9" height="9" fill="#19212E"/><rect x="165" y="108" width="9" height="9" fill="#19212E"/><rect x="165" y="120" width="9" height="9" fill="#19212E"/><rect x="165" y="132" width="9" height="9" fill="#19212E"/><rect x="165" y="144" width="9" height="9" fill="#19212E"/><rect x="165" y="156" width="9" height="9" fill="#19212E"/><rect x="177" y="84" width="9" height="9" fill="#19212E"/><rect x="177" y="96" width="9" height="9" fill="#1F4A38"/><rect x="177" y="108" width="9" height="9" fill="#1F4A38"/><rect x="177" y="120" width="9" height="9" fill="#19212E"/><rect x="177" y="132" width="9" height="9" fill="#19212E"/><rect x="177" y="144" width="9" height="9" fill="#19212E"/><rect x="177" y="156" width="9" height="9" fill="#19212E"/><rect x="189" y="84" width="9" height="9" fill="#19212E"/><rect x="189" y="96" width="9" height="9" fill="#19212E"/><rect x="189" y="108" width="9" height="9" fill="#19212E"/><rect x="189" y="120" width="9" height="9" fill="#19212E"/><rect x="189" y="132" width="9" height="9" fill="#19212E"/><rect x="189" y="144" width="9" height="9" fill="#19212E"/><rect x="189" y="156" width="9" height="9" fill="#19212E"/><rect x="201" y="84" width="9" height="9" fill="#19212E"/><rect x="201" y="96" width="9" height="9" fill="#19212E"/><rect x="201" y="108" width="9" height="9" fill="#19212E"/><rect x="201" y="120" width="9" height="9" fill="#19212E"/><rect x="201" y="132" width="9" height="9" fill="#19212E"/><rect x="201" y="144" width="9" height="9" fill="#19212E"/><rect x="201" y="156" width="9" height="9" fill="#19212E"/><rect x="213" y="84" width="9" height="9" fill="#19212E"/><rect x="213" y="96" width="9" height="9" fill="#19212E"/><rect x="213" y="108" width="9" height="9" fill="#19212E"/><rect x="213" y="120" width="9" height="9" fill="#19212E"/><rect x="213" y="132" width="9" height="9" fill="#19212E"/><rect x="213" y="144" width="9" height="9" fill="#19212E"/><rect x="213" y="156" width="9" height="9" fill="#19212E"/><rect x="225" y="84" width="9" height="9" fill="#19212E"/><rect x="225" y="96" width="9" height="9" fill="#19212E"/><rect x="225" y="108" width="9" height="9" fill="#19212E"/><rect x="225" y="120" width="9" height="9" fill="#19212E"/><rect x="225" y="132" width="9" height="9" fill="#19212E"/><rect x="225" y="144" width="9" height="9" fill="#1F4A38"/><rect x="225" y="156" width="9" height="9" fill="#1F4A38"/><rect x="237" y="84" width="9" height="9" fill="#19212E"/><rect x="237" y="96" width="9" height="9" fill="#1F4A38"/><rect x="237" y="108" width="9" height="9" fill="#1F4A38"/><rect x="237" y="120" width="9" height="9" fill="#1F4A38"/><rect x="237" y="132" width="9" height="9" fill="#19212E"/><rect x="237" y="144" width="9" height="9" fill="#1F4A38"/><rect x="237" y="156" width="9" height="9" fill="#19212E"/><rect x="249" y="84" width="9" height="9" fill="#19212E"/><path d="M249 57h15v3h-15zM267 57h15v3h-15zM285 57h12v3h-12zM249 60h3v3h-3zM267 60h3v3h-3zM285 60h3v3h-3zM297 60h3v3h-3zM249 63h3v3h-3zM267 63h3v3h-3zM285 63h3v3h-3zM297 63h3v3h-3zM249 66h12v3h-12zM267 66h12v3h-12zM285 66h12v3h-12zM249 69h3v3h-3zM267 69h3v3h-3zM285 69h3v3h-3zM297 69h3v3h-3zM249 72h3v3h-3zM267 72h3v3h-3zM285 72h3v3h-3zM297 72h3v3h-3zM249 75h3v3h-3zM267 75h15v3h-15zM285 75h12v3h-12z" fill="#8A9AC0"/><rect x="249" y="96" width="9" height="9" fill="#19212E"/><rect x="249" y="108" width="9" height="9" fill="#1F4A38"/><rect x="249" y="120" width="9" height="9" fill="#19212E"/><rect x="249" y="132" width="9" height="9" fill="#19212E"/><rect x="249" y="144" width="9" height="9" fill="#1F4A38"/><rect x="249" y="156" width="9" height="9" fill="#19212E"/><rect x="261" y="84" width="9" height="9" fill="#19212E"/><rect x="261" y="96" width="9" height="9" fill="#19212E"/><rect x="261" y="108" width="9" height="9" fill="#19212E"/><rect x="261" y="120" width="9" height="9" fill="#19212E"/><rect x="261" y="132" width="9" height="9" fill="#1F4A38"/><rect x="261" y="144" width="9" height="9" fill="#1F4A38"/><rect x="261" y="156" width="9" height="9" fill="#19212E"/><rect x="273" y="84" width="9" height="9" fill="#19212E"/><rect x="273" y="96" width="9" height="9" fill="#19212E"/><rect x="273" y="108" width="9" height="9" fill="#19212E"/><rect x="273" y="120" width="9" height="9" fill="#19212E"/><rect x="273" y="132" width="9" height="9" fill="#19212E"/><rect x="273" y="144" width="9" height="9" fill="#19212E"/><rect x="273" y="156" width="9" height="9" fill="#19212E"/><rect x="285" y="84" width="9" height="9" fill="#1F4A38"/><rect x="285" y="96" width="9" height="9" fill="#1F4A38"/><rect x="285" y="108" width="9" height="9" fill="#19212E"/><rect x="285" y="120" width="9" height="9" fill="#19212E"/><rect x="285" y="132" width="9" height="9" fill="#19212E"/><rect x="285" y="144" width="9" height="9" fill="#19212E"/><rect x="285" y="156" width="9" height="9" fill="#19212E"/><rect x="297" y="84" width="9" height="9" fill="#19212E"/><rect x="297" y="96" width="9" height="9" fill="#19212E"/><rect x="297" y="108" width="9" height="9" fill="#19212E"/><rect x="297" y="120" width="9" height="9" fill="#19212E"/><rect x="297" y="132" width="9" height="9" fill="#19212E"/><rect x="297" y="144" width="9" height="9" fill="#19212E"/><rect x="297" y="156" width="9" height="9" fill="#1F4A38"/><rect x="309" y="84" width="9" height="9" fill="#1F4A38"/><rect x="309" y="96" width="9" height="9" fill="#1F4A38"/><rect x="309" y="108" width="9" height="9" fill="#1F4A38"/><rect x="309" y="120" width="9" height="9" fill="#1F4A38"/><rect x="309" y="132" width="9" height="9" fill="#19212E"/><rect x="309" y="144" width="9" height="9" fill="#19212E"/><rect x="309" y="156" width="9" height="9" fill="#19212E"/><rect x="321" y="84" width="9" height="9" fill="#19212E"/><rect x="321" y="96" width="9" height="9" fill="#19212E"/><rect x="321" y="108" width="9" height="9" fill="#19212E"/><rect x="321" y="120" width="9" height="9" fill="#19212E"/><rect x="321" y="132" width="9" height="9" fill="#19212E"/><rect x="321" y="144" width="9" height="9" fill="#19212E"/><rect x="321" y="156" width="9" height="9" fill="#19212E"/><rect x="333" y="84" width="9" height="9" fill="#19212E"/><rect x="333" y="96" width="9" height="9" fill="#19212E"/><rect x="333" y="108" width="9" height="9" fill="#19212E"/><rect x="333" y="120" width="9" height="9" fill="#19212E"/><rect x="333" y="132" width="9" height="9" fill="#19212E"/><rect x="333" y="144" width="9" height="9" fill="#19212E"/><rect x="333" y="156" width="9" height="9" fill="#19212E"/><rect x="345" y="84" width="9" height="9" fill="#19212E"/><rect x="345" y="96" width="9" height="9" fill="#19212E"/><rect x="345" y="108" width="9" height="9" fill="#19212E"/><rect x="345" y="120" width="9" height="9" fill="#19212E"/><path d="M348 57h9v3h-9zM363 57h12v3h-12zM381 57h12v3h-12zM345 60h3v3h-3zM357 60h3v3h-3zM363 60h3v3h-3zM375 60h3v3h-3zM381 60h3v3h-3zM393 60h3v3h-3zM345 63h3v3h-3zM357 63h3v3h-3zM363 63h3v3h-3zM375 63h3v3h-3zM381 63h3v3h-3zM393 63h3v3h-3zM345 66h15v3h-15zM363 66h12v3h-12zM381 66h12v3h-12zM345 69h3v3h-3zM357 69h3v3h-3zM363 69h3v3h-3zM381 69h3v3h-3zM387 69h3v3h-3zM345 72h3v3h-3zM357 72h3v3h-3zM363 72h3v3h-3zM381 72h3v3h-3zM390 72h3v3h-3zM345 75h3v3h-3zM357 75h3v3h-3zM363 75h3v3h-3zM381 75h3v3h-3zM393 75h3v3h-3z" fill="#8A9AC0"/><rect x="345" y="132" width="9" height="9" fill="#19212E"/><rect x="345" y="144" width="9" height="9" fill="#19212E"/><rect x="345" y="156" width="9" height="9" fill="#19212E"/><rect x="357" y="84" width="9" height="9" fill="#19212E"/><rect x="357" y="96" width="9" height="9" fill="#19212E"/><rect x="357" y="108" width="9" height="9" fill="#19212E"/><rect x="357" y="120" width="9" height="9" fill="#19212E"/><rect x="357" y="132" width="9" height="9" fill="#19212E"/><rect x="357" y="144" width="9" height="9" fill="#19212E"/><rect x="357" y="156" width="9" height="9" fill="#19212E"/><rect x="369" y="84" width="9" height="9" fill="#19212E"/><rect x="369" y="96" width="9" height="9" fill="#19212E"/><rect x="369" y="108" width="9" height="9" fill="#19212E"/><rect x="369" y="120" width="9" height="9" fill="#19212E"/><rect x="369" y="132" width="9" height="9" fill="#19212E"/><rect x="369" y="144" width="9" height="9" fill="#19212E"/><rect x="369" y="156" width="9" height="9" fill="#19212E"/><rect x="381" y="84" width="9" height="9" fill="#19212E"/><rect x="381" y="96" width="9" height="9" fill="#19212E"/><rect x="381" y="108" width="9" height="9" fill="#19212E"/><rect x="381" y="120" width="9" height="9" fill="#19212E"/><rect x="381" y="132" width="9" height="9" fill="#19212E"/><rect x="381" y="144" width="9" height="9" fill="#19212E"/><rect x="381" y="156" width="9" height="9" fill="#19212E"/><rect x="393" y="84" width="9" height="9" fill="#19212E"/><rect x="393" y="96" width="9" height="9" fill="#19212E"/><rect x="393" y="108" width="9" height="9" fill="#19212E"/><rect x="393" y="120" width="9" height="9" fill="#19212E"/><rect x="393" y="132" width="9" height="9" fill="#19212E"/><rect x="393" y="144" width="9" height="9" fill="#19212E"/><rect x="393" y="156" width="9" height="9" fill="#19212E"/><rect x="405" y="84" width="9" height="9" fill="#19212E"/><rect x="405" y="96" width="9" height="9" fill="#19212E"/><rect x="405" y="108" width="9" height="9" fill="#19212E"/><rect x="405" y="120" width="9" height="9" fill="#19212E"/><rect x="405" y="132" width="9" height="9" fill="#19212E"/><rect x="405" y="144" width="9" height="9" fill="#19212E"/><rect x="405" y="156" width="9" height="9" fill="#19212E"/><rect x="417" y="84" width="9" height="9" fill="#19212E"/><rect x="417" y="96" width="9" height="9" fill="#19212E"/><rect x="417" y="108" width="9" height="9" fill="#19212E"/><rect x="417" y="120" width="9" height="9" fill="#19212E"/><rect x="417" y="132" width="9" height="9" fill="#19212E"/><rect x="417" y="144" width="9" height="9" fill="#19212E"/><rect x="417" y="156" width="9" height="9" fill="#19212E"/><rect x="429" y="84" width="9" height="9" fill="#19212E"/><rect x="429" y="96" width="9" height="9" fill="#19212E"/><rect x="429" y="108" width="9" height="9" fill="#19212E"/><rect x="429" y="120" width="9" height="9" fill="#19212E"/><rect x="429" y="132" width="9" height="9" fill="#19212E"/><rect x="429" y="144" width="9" height="9" fill="#19212E"/><rect x="429" y="156" width="9" height="9" fill="#19212E"/><rect x="441" y="84" width="9" height="9" fill="#19212E"/><rect x="441" y="96" width="9" height="9" fill="#19212E"/><rect x="441" y="108" width="9" height="9" fill="#19212E"/><rect x="441" y="120" width="9" height="9" fill="#19212E"/><rect x="441" y="132" width="9" height="9" fill="#19212E"/><rect x="441" y="144" width="9" height="9" fill="#19212E"/><rect x="441" y="156" width="9" height="9" fill="#19212E"/><rect x="453" y="84" width="9" height="9" fill="#19212E"/><rect x="453" y="96" width="9" height="9" fill="#19212E"/><path d="M459 57h9v3h-9zM471 57h3v3h-3zM483 57h3v3h-3zM489 57h3v3h-3zM501 57h3v3h-3zM462 60h3v3h-3zM471 60h3v3h-3zM483 60h3v3h-3zM489 60h6v3h-6zM501 60h3v3h-3zM462 63h3v3h-3zM471 63h3v3h-3zM483 63h3v3h-3zM489 63h3v3h-3zM495 63h3v3h-3zM501 63h3v3h-3zM462 66h3v3h-3zM471 66h3v3h-3zM483 66h3v3h-3zM489 66h3v3h-3zM498 66h6v3h-6zM462 69h3v3h-3zM471 69h3v3h-3zM483 69h3v3h-3zM489 69h3v3h-3zM501 69h3v3h-3zM453 72h3v3h-3zM462 72h3v3h-3zM471 72h3v3h-3zM483 72h3v3h-3zM489 72h3v3h-3zM501 72h3v3h-3zM456 75h6v3h-6zM474 75h9v3h-9zM489 75h3v3h-3zM501 75h3v3h-3z" fill="#8A9AC0"/><rect x="453" y="108" width="9" height="9" fill="#19212E"/><rect x="453" y="120" width="9" height="9" fill="#19212E"/><rect x="453" y="132" width="9" height="9" fill="#19212E"/><rect x="453" y="144" width="9" height="9" fill="#19212E"/><rect x="453" y="156" width="9" height="9" fill="#19212E"/><rect x="465" y="84" width="9" height="9" fill="#19212E"/><rect x="465" y="96" width="9" height="9" fill="#19212E"/><rect x="465" y="108" width="9" height="9" fill="#19212E"/><rect x="465" y="120" width="9" height="9" fill="#19212E"/><rect x="465" y="132" width="9" height="9" fill="#19212E"/><rect x="465" y="144" width="9" height="9" fill="#19212E"/><rect x="465" y="156" width="9" height="9" fill="#19212E"/><rect x="477" y="84" width="9" height="9" fill="#19212E"/><rect x="477" y="96" width="9" height="9" fill="#19212E"/><rect x="477" y="108" width="9" height="9" fill="#19212E"/><rect x="477" y="120" width="9" height="9" fill="#19212E"/><rect x="477" y="132" width="9" height="9" fill="#19212E"/><rect x="477" y="144" width="9" height="9" fill="#19212E"/><rect x="477" y="156" width="9" height="9" fill="#19212E"/><rect x="489" y="84" width="9" height="9" fill="#19212E"/><rect x="489" y="96" width="9" height="9" fill="#19212E"/><rect x="489" y="108" width="9" height="9" fill="#19212E"/><rect x="489" y="120" width="9" height="9" fill="#19212E"/><rect x="489" y="132" width="9" height="9" fill="#19212E"/><rect x="489" y="144" width="9" height="9" fill="#19212E"/><rect x="489" y="156" width="9" height="9" fill="#19212E"/><rect x="501" y="84" width="9" height="9" fill="#19212E"/><rect x="501" y="96" width="9" height="9" fill="#19212E"/><rect x="501" y="108" width="9" height="9" fill="#19212E"/><rect x="501" y="120" width="9" height="9" fill="#19212E"/><rect x="501" y="132" width="9" height="9" fill="#19212E"/><rect x="501" y="144" width="9" height="9" fill="#19212E"/><rect x="501" y="156" width="9" height="9" fill="#19212E"/><rect x="513" y="84" width="9" height="9" fill="#19212E"/><rect x="513" y="96" width="9" height="9" fill="#19212E"/><rect x="513" y="108" width="9" height="9" fill="#19212E"/><rect x="513" y="120" width="9" height="9" fill="#19212E"/><rect x="513" y="132" width="9" height="9" fill="#19212E"/><rect x="513" y="144" width="9" height="9" fill="#19212E"/><rect x="513" y="156" width="9" height="9" fill="#19212E"/><rect x="525" y="84" width="9" height="9" fill="#19212E"/><rect x="525" y="96" width="9" height="9" fill="#19212E"/><rect x="525" y="108" width="9" height="9" fill="#19212E"/><rect x="525" y="120" width="9" height="9" fill="#19212E"/><rect x="525" y="132" width="9" height="9" fill="#19212E"/><rect x="525" y="144" width="9" height="9" fill="#19212E"/><rect x="525" y="156" width="9" height="9" fill="#19212E"/><rect x="537" y="84" width="9" height="9" fill="#19212E"/><rect x="537" y="96" width="9" height="9" fill="#19212E"/><rect x="537" y="108" width="9" height="9" fill="#19212E"/><rect x="537" y="120" width="9" height="9" fill="#19212E"/><rect x="537" y="132" width="9" height="9" fill="#19212E"/><rect x="537" y="144" width="9" height="9" fill="#19212E"/><rect x="537" y="156" width="9" height="9" fill="#19212E"/><rect x="549" y="84" width="9" height="9" fill="#19212E"/><rect x="549" y="96" width="9" height="9" fill="#19212E"/><rect x="549" y="108" width="9" height="9" fill="#19212E"/><rect x="549" y="120" width="9" height="9" fill="#19212E"/><rect x="549" y="132" width="9" height="9" fill="#19212E"/><rect x="549" y="144" width="9" height="9" fill="#19212E"/><rect x="549" y="156" width="9" height="9" fill="#19212E"/><path d="M552 57h9v3h-9zM567 57h3v3h-3zM579 57h3v3h-3zM588 57h9v3h-9zM549 60h3v3h-3zM561 60h3v3h-3zM567 60h3v3h-3zM579 60h3v3h-3zM585 60h3v3h-3zM597 60h3v3h-3zM549 63h3v3h-3zM561 63h3v3h-3zM567 63h3v3h-3zM579 63h3v3h-3zM585 63h3v3h-3zM549 66h15v3h-15zM567 66h3v3h-3zM579 66h3v3h-3zM585 66h3v3h-3zM591 66h9v3h-9zM549 69h3v3h-3zM561 69h3v3h-3zM567 69h3v3h-3zM579 69h3v3h-3zM585 69h3v3h-3zM597 69h3v3h-3zM549 72h3v3h-3zM561 72h3v3h-3zM567 72h3v3h-3zM579 72h3v3h-3zM585 72h3v3h-3zM597 72h3v3h-3zM549 75h3v3h-3zM561 75h3v3h-3zM570 75h9v3h-9zM588 75h9v3h-9z" fill="#8A9AC0"/><rect x="561" y="84" width="9" height="9" fill="#1F4A38"/><rect x="561" y="96" width="9" height="9" fill="#1F4A38"/><rect x="561" y="108" width="9" height="9" fill="#1F4A38"/><rect x="561" y="120" width="9" height="9" fill="#19212E"/><rect x="561" y="132" width="9" height="9" fill="#19212E"/><rect x="561" y="144" width="9" height="9" fill="#19212E"/><rect x="561" y="156" width="9" height="9" fill="#19212E"/><rect x="573" y="84" width="9" height="9" fill="#19212E"/><rect x="573" y="96" width="9" height="9" fill="#2C6B4C"/><rect x="573" y="108" width="9" height="9" fill="#1F4A38"/><rect x="573" y="120" width="9" height="9" fill="#3F8F63"/><rect x="573" y="132" width="9" height="9" fill="#2C6B4C"/><rect x="573" y="144" width="9" height="9" fill="#2C6B4C"/><rect x="573" y="156" width="9" height="9" fill="#62BE87"/><rect x="585" y="84" width="9" height="9" fill="#1F4A38"/><rect x="585" y="96" width="9" height="9" fill="#2C6B4C"/><rect x="585" y="108" width="9" height="9" fill="#19212E"/><rect x="585" y="120" width="9" height="9" fill="#1F4A38"/><rect x="585" y="132" width="9" height="9" fill="#2C6B4C"/><rect x="585" y="144" width="9" height="9" fill="#1F4A38"/><rect x="585" y="156" width="9" height="9" fill="#1F4A38"/><rect x="597" y="84" width="9" height="9" fill="#1F4A38"/><rect x="597" y="96" width="9" height="9" fill="#1F4A38"/><rect x="597" y="108" width="9" height="9" fill="#1F4A38"/><rect x="597" y="120" width="9" height="9" fill="#1F4A38"/><rect x="597" y="132" width="9" height="9" fill="#2C6B4C"/><rect x="597" y="144" width="9" height="9" fill="#1F4A38"/><rect x="597" y="156" width="9" height="9" fill="#1F4A38"/><rect x="609" y="84" width="9" height="9" fill="#1F4A38"/><rect x="609" y="96" width="9" height="9" fill="#1F4A38"/><rect x="609" y="108" width="9" height="9" fill="#1F4A38"/><rect x="609" y="120" width="9" height="9" fill="#1F4A38"/><rect x="609" y="132" width="9" height="9" fill="#1F4A38"/><rect x="609" y="144" width="9" height="9" fill="#1F4A38"/><rect x="609" y="156" width="9" height="9" fill="#1F4A38"/><rect x="621" y="84" width="9" height="9" fill="#1F4A38"/><rect x="621" y="96" width="9" height="9" fill="#1F4A38"/><rect x="621" y="108" width="9" height="9" fill="#3F8F63"/><rect x="621" y="120" width="9" height="9" fill="#1F4A38"/><rect x="621" y="132" width="9" height="9" fill="#1F4A38"/><rect x="621" y="144" width="9" height="9" fill="#1F4A38"/><rect x="621" y="156" width="9" height="9" fill="#1F4A38"/><rect x="633" y="84" width="9" height="9" fill="#1F4A38"/><rect x="633" y="96" width="9" height="9" fill="#1F4A38"/><rect x="633" y="108" width="9" height="9" fill="#1F4A38"/><rect x="633" y="120" width="9" height="9" fill="#1F4A38"/><rect x="633" y="132" width="9" height="9" fill="#19212E"/><rect x="633" y="144" width="9" height="9" fill="#19212E"/><rect x="633" y="156" width="9" height="9" fill="#1F4A38"/><rect x="645" y="84" width="9" height="9" fill="#1F4A38"/><rect x="645" y="96" width="9" height="9" fill="#1F4A38"/><rect x="645" y="108" width="9" height="9" fill="#1F4A38"/><rect x="645" y="120" width="9" height="9" fill="#19212E"/><rect x="645" y="132" width="9" height="9" fill="#19212E"/><rect x="645" y="144" width="9" height="9" fill="#19212E"/><rect x="645" y="156" width="9" height="9" fill="#19212E"/><rect x="657" y="84" width="9" height="9" fill="#1F4A38"/><path d="M39 180h6v3h-6zM51 180h15v3h-15zM90 180h9v3h-9zM108 180h9v3h-9zM123 180h15v3h-15zM141 180h15v3h-15zM159 180h3v3h-3zM171 180h3v3h-3zM177 180h15v3h-15zM213 180h12v3h-12zM234 180h9v3h-9zM249 180h3v3h-3zM261 180h3v3h-3zM270 180h12v3h-12zM36 183h3v3h-3zM51 183h3v3h-3zM87 183h3v3h-3zM99 183h3v3h-3zM105 183h3v3h-3zM117 183h3v3h-3zM129 183h3v3h-3zM147 183h3v3h-3zM159 183h3v3h-3zM171 183h3v3h-3zM177 183h3v3h-3zM213 183h3v3h-3zM225 183h3v3h-3zM231 183h3v3h-3zM243 183h3v3h-3zM249 183h3v3h-3zM261 183h3v3h-3zM267 183h3v3h-3zM33 186h3v3h-3zM51 186h12v3h-12zM87 186h3v3h-3zM99 186h3v3h-3zM105 186h3v3h-3zM129 186h3v3h-3zM147 186h3v3h-3zM159 186h3v3h-3zM171 186h3v3h-3zM177 186h3v3h-3zM213 186h3v3h-3zM225 186h3v3h-3zM231 186h3v3h-3zM243 186h3v3h-3zM252 186h3v3h-3zM258 186h3v3h-3zM267 186h3v3h-3zM33 189h12v3h-12zM63 189h3v3h-3zM87 189h15v3h-15zM105 189h3v3h-3zM129 189h3v3h-3zM147 189h3v3h-3zM159 189h3v3h-3zM171 189h3v3h-3zM177 189h12v3h-12zM213 189h3v3h-3zM225 189h3v3h-3zM231 189h15v3h-15zM255 189h3v3h-3zM270 189h9v3h-9zM33 192h3v3h-3zM45 192h3v3h-3zM63 192h3v3h-3zM87 192h3v3h-3zM99 192h3v3h-3zM105 192h3v3h-3zM129 192h3v3h-3zM147 192h3v3h-3zM159 192h3v3h-3zM171 192h3v3h-3zM177 192h3v3h-3zM213 192h3v3h-3zM225 192h3v3h-3zM231 192h3v3h-3zM243 192h3v3h-3zM255 192h3v3h-3zM279 192h3v3h-3zM33 195h3v3h-3zM45 195h3v3h-3zM51 195h3v3h-3zM63 195h3v3h-3zM87 195h3v3h-3zM99 195h3v3h-3zM105 195h3v3h-3zM117 195h3v3h-3zM129 195h3v3h-3zM147 195h3v3h-3zM162 195h3v3h-3zM168 195h3v3h-3zM177 195h3v3h-3zM213 195h3v3h-3zM225 195h3v3h-3zM231 195h3v3h-3zM243 195h3v3h-3zM255 195h3v3h-3zM279 195h3v3h-3zM36 198h9v3h-9zM54 198h9v3h-9zM87 198h3v3h-3zM99 198h3v3h-3zM108 198h9v3h-9zM129 198h3v3h-3zM141 198h15v3h-15zM165 198h3v3h-3zM177 198h15v3h-15zM213 198h12v3h-12zM231 198h3v3h-3zM243 198h3v3h-3zM255 198h3v3h-3zM267 198h12v3h-12z" fill="#8A9AC0"/><path d="M531 180h3v3h-3zM549 180h15v3h-15zM570 180h12v3h-12zM588 180h12v3h-12zM531 183h3v3h-3zM549 183h3v3h-3zM567 183h3v3h-3zM585 183h3v3h-3zM531 186h3v3h-3zM549 186h3v3h-3zM567 186h3v3h-3zM585 186h3v3h-3zM531 189h3v3h-3zM549 189h12v3h-12zM570 189h9v3h-9zM588 189h9v3h-9zM531 192h3v3h-3zM549 192h3v3h-3zM579 192h3v3h-3zM597 192h3v3h-3zM531 195h3v3h-3zM549 195h3v3h-3zM579 195h3v3h-3zM597 195h3v3h-3zM531 198h15v3h-15zM549 198h15v3h-15zM567 198h12v3h-12zM585 198h12v3h-12z" fill="#8A9AC0"/><rect x="621" y="186" width="9" height="9" fill="#19212E"/><rect x="633" y="186" width="9" height="9" fill="#1F4A38"/><rect x="645" y="186" width="9" height="9" fill="#2C6B4C"/><rect x="657" y="186" width="9" height="9" fill="#3F8F63"/><rect x="669" y="186" width="9" height="9" fill="#62BE87"/><path d="M699 180h3v3h-3zM711 180h3v3h-3zM720 180h9v3h-9zM735 180h12v3h-12zM753 180h15v3h-15zM699 183h6v3h-6zM708 183h6v3h-6zM717 183h3v3h-3zM729 183h3v3h-3zM735 183h3v3h-3zM747 183h3v3h-3zM753 183h3v3h-3zM699 186h3v3h-3zM705 186h3v3h-3zM711 186h3v3h-3zM717 186h3v3h-3zM729 186h3v3h-3zM735 186h3v3h-3zM747 186h3v3h-3zM753 186h3v3h-3zM699 189h3v3h-3zM711 189h3v3h-3zM717 189h3v3h-3zM729 189h3v3h-3zM735 189h12v3h-12zM753 189h12v3h-12zM699 192h3v3h-3zM711 192h3v3h-3zM717 192h3v3h-3zM729 192h3v3h-3zM735 192h3v3h-3zM741 192h3v3h-3zM753 192h3v3h-3zM699 195h3v3h-3zM711 195h3v3h-3zM717 195h3v3h-3zM729 195h3v3h-3zM735 195h3v3h-3zM744 195h3v3h-3zM753 195h3v3h-3zM699 198h3v3h-3zM711 198h3v3h-3zM720 198h9v3h-9zM735 198h3v3h-3zM747 198h3v3h-3zM753 198h15v3h-15z" fill="#8A9AC0"/></svg>