<svg xmlns="http://www.w3.org/2000/svg" width="804" height="552" viewBox="0 0 804 552" role="img" aria-label="Archive: HelperBoi, PhotoDedupe, AudioTrans, LabEval, Attendance, SaleSnipe, CarbonGauge"><rect width="804" height="552" rx="9" fill="#8E1E18"/><rect x="3" y="3" width="798" height="6" fill="#B3352C"/><rect x="3" y="543" width="798" height="6" fill="#4E0F0B"/><rect x="15" y="15" width="774" height="522" fill="#5C74B8"/><rect x="18" y="18" width="768" height="516" fill="#0F141C"/><rect x="24" y="24" width="756" height="33" fill="#22304F"/><path d="M36 30h9v3h-9zM51 30h12v3h-12zM72 30h9v3h-9zM87 30h3v3h-3zM99 30h3v3h-3zM105 30h15v3h-15zM123 30h3v3h-3zM135 30h3v3h-3zM141 30h15v3h-15zM33 33h3v3h-3zM45 33h3v3h-3zM51 33h3v3h-3zM63 33h3v3h-3zM69 33h3v3h-3zM81 33h3v3h-3zM87 33h3v3h-3zM99 33h3v3h-3zM111 33h3v3h-3zM123 33h3v3h-3zM135 33h3v3h-3zM141 33h3v3h-3zM33 36h3v3h-3zM45 36h3v3h-3zM51 36h3v3h-3zM63 36h3v3h-3zM69 36h3v3h-3zM87 36h3v3h-3zM99 36h3v3h-3zM111 36h3v3h-3zM123 36h3v3h-3zM135 36h3v3h-3zM141 36h3v3h-3zM33 39h15v3h-15zM51 39h12v3h-12zM69 39h3v3h-3zM87 39h15v3h-15zM111 39h3v3h-3zM123 39h3v3h-3zM135 39h3v3h-3zM141 39h12v3h-12zM33 42h3v3h-3zM45 42h3v3h-3zM51 42h3v3h-3zM57 42h3v3h-3zM69 42h3v3h-3zM87 42h3v3h-3zM99 42h3v3h-3zM111 42h3v3h-3zM123 42h3v3h-3zM135 42h3v3h-3zM141 42h3v3h-3zM33 45h3v3h-3zM45 45h3v3h-3zM51 45h3v3h-3zM60 45h3v3h-3zM69 45h3v3h-3zM81 45h3v3h-3zM87 45h3v3h-3zM99 45h3v3h-3zM111 45h3v3h-3zM126 45h3v3h-3zM132 45h3v3h-3zM141 45h3v3h-3zM33 48h3v3h-3zM45 48h3v3h-3zM51 48h3v3h-3zM63 48h3v3h-3zM72 48h9v3h-9zM87 48h3v3h-3zM99 48h3v3h-3zM105 48h15v3h-15zM129 48h3v3h-3zM141 48h15v3h-15z" fill="#DCE6F5"/><path d="M645 30h15v3h-15zM657 33h3v3h-3zM654 36h3v3h-3zM681 36h3v3h-3zM687 36h6v3h-6zM702 36h9v3h-9zM717 36h12v3h-12zM738 36h9v3h-9zM756 36h12v3h-12zM651 39h3v3h-3zM681 39h6v3h-6zM693 39h3v3h-3zM699 39h3v3h-3zM711 39h3v3h-3zM717 39h3v3h-3zM729 39h3v3h-3zM735 39h3v3h-3zM747 39h3v3h-3zM753 39h3v3h-3zM648 42h3v3h-3zM681 42h3v3h-3zM699 42h15v3h-15zM717 42h3v3h-3zM729 42h3v3h-3zM735 42h3v3h-3zM747 42h3v3h-3zM756 42h9v3h-9zM648 45h3v3h-3zM681 45h3v3h-3zM699 45h3v3h-3zM717 45h12v3h-12zM735 45h3v3h-3zM747 45h3v3h-3zM765 45h3v3h-3zM648 48h3v3h-3zM681 48h3v3h-3zM702 48h9v3h-9zM717 48h3v3h-3zM738 48h9v3h-9zM753 48h12v3h-12zM717 51h3v3h-3z" fill="#DCE6F5"/><rect x="24" y="75" width="240" height="132" rx="6" fill="#19212E" stroke="#3A4A72" stroke-width="3"/><path d="M141 81h3v3h-3zM138 84h9v3h-9zM135 87h15v3h-15zM138 90h9v3h-9zM141 93h6v3h-6zM141 96h6v3h-6zM141 99h6v3h-6z" fill="#D96C4A"/><path d="M123 99h18v3h-18zM147 99h18v3h-18zM123 102h42v3h-42zM123 105h42v3h-42zM123 108h9v3h-9zM141 108h6v3h-6zM156 108h9v3h-9zM117 111h15v3h-15zM141 111h6v3h-6zM156 111h15v3h-15zM117 114h15v3h-15zM141 114h6v3h-6zM156 114h15v3h-15zM117 117h54v3h-54zM117 120h54v3h-54zM117 123h15v3h-15zM156 123h15v3h-15zM123 126h9v3h-9zM156 126h9v3h-9zM123 129h42v3h-42zM123 132h42v3h-42z" fill="#9BB3D4"/><path d="M132 108h9v3h-9zM147 108h9v3h-9zM132 111h9v3h-9zM147 111h9v3h-9zM132 114h9v3h-9zM147 114h9v3h-9zM132 123h24v3h-24zM132 126h24v3h-24z" fill="#2E4A6E"/><path d="M138 81h3v3h-3zM144 81h3v3h-3zM135 84h3v3h-3zM147 84h3v3h-3zM132 87h3v3h-3zM150 87h3v3h-3zM135 90h3v3h-3zM147 90h3v3h-3zM138 93h3v3h-3zM147 93h3v3h-3zM123 96h18v3h-18zM147 96h18v3h-18zM120 99h3v3h-3zM165 99h3v3h-3zM120 102h3v3h-3zM165 102h3v3h-3zM120 105h3v3h-3zM165 105h3v3h-3zM117 108h6v3h-6zM165 108h6v3h-6zM114 111h3v3h-3zM171 111h3v3h-3zM114 114h3v3h-3zM171 114h3v3h-3zM114 117h3v3h-3zM171 117h3v3h-3zM114 120h3v3h-3zM171 120h3v3h-3zM114 123h3v3h-3zM171 123h3v3h-3zM117 126h6v3h-6zM165 126h6v3h-6zM120 129h3v3h-3zM165 129h3v3h-3zM120 132h3v3h-3zM165 132h3v3h-3zM123 135h42v3h-42z" fill="#1A2436"/><path d="M63 171h3v3h-3zM75 171h3v3h-3zM102 171h6v3h-6zM171 171h12v3h-12zM213 171h3v3h-3zM63 174h3v3h-3zM75 174h3v3h-3zM105 174h3v3h-3zM171 174h3v3h-3zM183 174h3v3h-3zM63 177h3v3h-3zM75 177h3v3h-3zM84 177h9v3h-9zM105 177h3v3h-3zM117 177h12v3h-12zM138 177h9v3h-9zM153 177h3v3h-3zM159 177h6v3h-6zM171 177h3v3h-3zM183 177h3v3h-3zM192 177h9v3h-9zM210 177h6v3h-6zM63 180h15v3h-15zM81 180h3v3h-3zM93 180h3v3h-3zM105 180h3v3h-3zM117 180h3v3h-3zM129 180h3v3h-3zM135 180h3v3h-3zM147 180h3v3h-3zM153 180h6v3h-6zM165 180h3v3h-3zM171 180h12v3h-12zM189 180h3v3h-3zM201 180h3v3h-3zM213 180h3v3h-3zM63 183h3v3h-3zM75 183h3v3h-3zM81 183h15v3h-15zM105 183h3v3h-3zM117 183h3v3h-3zM129 183h3v3h-3zM135 183h15v3h-15zM153 183h3v3h-3zM171 183h3v3h-3zM183 183h3v3h-3zM189 183h3v3h-3zM201 183h3v3h-3zM213 183h3v3h-3zM63 186h3v3h-3zM75 186h3v3h-3zM81 186h3v3h-3zM105 186h3v3h-3zM117 186h12v3h-12zM135 186h3v3h-3zM153 186h3v3h-3zM171 186h3v3h-3zM183 186h3v3h-3zM189 186h3v3h-3zM201 186h3v3h-3zM213 186h3v3h-3zM63 189h3v3h-3zM75 189h3v3h-3zM84 189h9v3h-9zM102 189h9v3h-9zM117 189h3v3h-3zM138 189h9v3h-9zM153 189h3v3h-3zM171 189h12v3h-12zM192 189h9v3h-9zM210 189h9v3h-9zM117 192h3v3h-3z" fill="#DCE6F5"/><rect x="282" y="75" width="240" height="132" rx="6" fill="#19212E" stroke="#3A4A72" stroke-width="3"/><path d="M372 93h39v3h-39zM372 96h39v3h-39zM372 99h6v3h-6zM405 99h6v3h-6zM372 102h6v3h-6zM405 102h6v3h-6zM372 105h6v3h-6zM405 105h6v3h-6zM372 108h6v3h-6zM393 108h39v3h-39zM372 111h6v3h-6zM393 111h39v3h-39zM372 114h6v3h-6zM393 114h6v3h-6zM426 114h6v3h-6zM372 117h6v3h-6zM393 117h6v3h-6zM426 117h6v3h-6zM372 120h27v3h-27zM426 120h6v3h-6zM372 123h27v3h-27zM426 123h6v3h-6zM372 126h27v3h-27zM426 126h6v3h-6zM372 129h27v3h-27zM426 129h6v3h-6zM393 132h6v3h-6zM426 132h6v3h-6zM393 135h39v3h-39zM393 138h39v3h-39zM393 141h39v3h-39zM393 144h39v3h-39z" fill="#F6F4EC"/><path d="M378 99h27v3h-27zM378 102h27v3h-27zM378 105h27v3h-27zM378 108h15v3h-15zM378 111h15v3h-15zM378 114h15v3h-15zM378 117h15v3h-15z" fill="#7FA8D8"/><path d="M399 114h27v3h-27zM399 117h27v3h-27zM399 120h27v3h-27zM399 123h27v3h-27zM399 126h27v3h-27zM399 129h27v3h-27zM399 132h27v3h-27z" fill="#8FC08A"/><path d="M372 90h39v3h-39zM369 93h3v3h-3zM411 93h3v3h-3zM369 96h3v3h-3zM411 96h3v3h-3zM369 99h3v3h-3zM411 99h3v3h-3zM369 102h3v3h-3zM411 102h3v3h-3zM369 105h3v3h-3zM411 105h21v3h-21zM369 108h3v3h-3zM432 108h3v3h-3zM369 111h3v3h-3zM432 111h3v3h-3zM369 114h3v3h-3zM432 114h3v3h-3zM369 117h3v3h-3zM432 117h3v3h-3zM369 120h3v3h-3zM432 120h3v3h-3zM369 123h3v3h-3zM432 123h3v3h-3zM369 126h3v3h-3zM432 126h3v3h-3zM369 129h3v3h-3zM432 129h3v3h-3zM372 132h21v3h-21zM432 132h3v3h-3zM390 135h3v3h-3zM432 135h3v3h-3zM390 138h3v3h-3zM432 138h3v3h-3zM390 141h3v3h-3zM432 141h3v3h-3zM390 144h3v3h-3zM432 144h3v3h-3zM393 147h39v3h-39z" fill="#23262E"/><path d="M303 171h12v3h-12zM321 171h3v3h-3zM360 171h3v3h-3zM393 171h12v3h-12zM441 171h3v3h-3zM303 174h3v3h-3zM315 174h3v3h-3zM321 174h3v3h-3zM360 174h3v3h-3zM393 174h3v3h-3zM405 174h3v3h-3zM441 174h3v3h-3zM303 177h3v3h-3zM315 177h3v3h-3zM321 177h12v3h-12zM342 177h9v3h-9zM357 177h9v3h-9zM378 177h9v3h-9zM393 177h3v3h-3zM405 177h3v3h-3zM414 177h9v3h-9zM432 177h12v3h-12zM447 177h3v3h-3zM459 177h3v3h-3zM465 177h12v3h-12zM486 177h9v3h-9zM303 180h12v3h-12zM321 180h3v3h-3zM333 180h3v3h-3zM339 180h3v3h-3zM351 180h3v3h-3zM360 180h3v3h-3zM375 180h3v3h-3zM387 180h3v3h-3zM393 180h3v3h-3zM405 180h3v3h-3zM411 180h3v3h-3zM423 180h3v3h-3zM429 180h3v3h-3zM441 180h3v3h-3zM447 180h3v3h-3zM459 180h3v3h-3zM465 180h3v3h-3zM477 180h3v3h-3zM483 180h3v3h-3zM495 180h3v3h-3zM303 183h3v3h-3zM321 183h3v3h-3zM333 183h3v3h-3zM339 183h3v3h-3zM351 183h3v3h-3zM360 183h3v3h-3zM375 183h3v3h-3zM387 183h3v3h-3zM393 183h3v3h-3zM405 183h3v3h-3zM411 183h15v3h-15zM429 183h3v3h-3zM441 183h3v3h-3zM447 183h3v3h-3zM459 183h3v3h-3zM465 183h3v3h-3zM477 183h3v3h-3zM483 183h15v3h-15zM303 186h3v3h-3zM321 186h3v3h-3zM333 186h3v3h-3zM339 186h3v3h-3zM351 186h3v3h-3zM360 186h3v3h-3zM369 186h3v3h-3zM375 186h3v3h-3zM387 186h3v3h-3zM393 186h3v3h-3zM405 186h3v3h-3zM411 186h3v3h-3zM429 186h3v3h-3zM441 186h3v3h-3zM447 186h3v3h-3zM456 186h6v3h-6zM465 186h12v3h-12zM483 186h3v3h-3zM303 189h3v3h-3zM321 189h3v3h-3zM333 189h3v3h-3zM342 189h9v3h-9zM363 189h6v3h-6zM378 189h9v3h-9zM393 189h12v3h-12zM414 189h9v3h-9zM432 189h12v3h-12zM450 189h6v3h-6zM459 189h3v3h-3zM465 189h3v3h-3zM486 189h9v3h-9zM465 192h3v3h-3z" fill="#DCE6F5"/><rect x="540" y="75" width="240" height="132" rx="6" fill="#19212E" stroke="#3A4A72" stroke-width="3"/><path d="M657 81h3v3h-3zM651 84h15v3h-15zM648 87h21v3h-21zM648 90h24v3h-24zM645 93h27v3h-27zM648 96h24v3h-24zM648 99h3v3h-3zM669 99h3v3h-3zM648 102h24v3h-24zM648 105h3v3h-3zM669 105h3v3h-3zM648 108h24v3h-24zM648 111h3v3h-3zM669 111h3v3h-3zM648 114h24v3h-24zM648 117h24v3h-24zM645 120h27v3h-27zM648 123h24v3h-24zM648 126h21v3h-21z" fill="#C6CBD8"/><path d="M651 99h18v3h-18zM651 105h18v3h-18zM651 111h18v3h-18z" fill="#5A6478"/><path d="M639 120h6v3h-6zM675 120h6v3h-6zM639 123h6v3h-6zM675 123h6v3h-6zM639 126h6v3h-6zM675 126h6v3h-6zM639 129h42v3h-42zM639 132h42v3h-42zM654 135h12v3h-12zM654 138h12v3h-12zM654 141h12v3h-12zM645 144h30v3h-30zM645 147h30v3h-30z" fill="#8A93A6"/><path d="M651 81h6v3h-6zM660 81h6v3h-6zM648 84h3v3h-3zM666 84h3v3h-3zM645 87h3v3h-3zM669 87h3v3h-3zM645 90h3v3h-3zM672 90h3v3h-3zM642 93h3v3h-3zM672 93h3v3h-3zM645 96h3v3h-3zM672 96h3v3h-3zM645 99h3v3h-3zM672 99h3v3h-3zM645 102h3v3h-3zM672 102h3v3h-3zM645 105h3v3h-3zM672 105h3v3h-3zM645 108h3v3h-3zM672 108h3v3h-3zM645 111h3v3h-3zM672 111h3v3h-3zM645 114h3v3h-3zM672 114h3v3h-3zM639 117h9v3h-9zM672 117h9v3h-9zM636 120h3v3h-3zM672 120h3v3h-3zM681 120h3v3h-3zM636 123h3v3h-3zM645 123h3v3h-3zM672 123h3v3h-3zM681 123h3v3h-3zM636 126h3v3h-3zM645 126h3v3h-3zM669 126h6v3h-6zM681 126h3v3h-3zM636 129h3v3h-3zM681 129h3v3h-3zM636 132h3v3h-3zM681 132h3v3h-3zM639 135h15v3h-15zM666 135h15v3h-15zM651 138h3v3h-3zM666 138h3v3h-3zM645 141h9v3h-9zM666 141h9v3h-9zM642 144h3v3h-3zM675 144h3v3h-3zM642 147h3v3h-3zM675 147h3v3h-3zM645 150h30v3h-30z" fill="#1D2230"/><path d="M573 171h9v3h-9zM618 171h3v3h-3zM630 171h3v3h-3zM660 171h15v3h-15zM570 174h3v3h-3zM582 174h3v3h-3zM618 174h3v3h-3zM666 174h3v3h-3zM570 177h3v3h-3zM582 177h3v3h-3zM588 177h3v3h-3zM600 177h3v3h-3zM609 177h12v3h-12zM627 177h6v3h-6zM645 177h9v3h-9zM666 177h3v3h-3zM678 177h3v3h-3zM684 177h6v3h-6zM699 177h9v3h-9zM714 177h12v3h-12zM735 177h12v3h-12zM570 180h15v3h-15zM588 180h3v3h-3zM600 180h3v3h-3zM606 180h3v3h-3zM618 180h3v3h-3zM630 180h3v3h-3zM642 180h3v3h-3zM654 180h3v3h-3zM666 180h3v3h-3zM678 180h6v3h-6zM690 180h3v3h-3zM708 180h3v3h-3zM714 180h3v3h-3zM726 180h3v3h-3zM732 180h3v3h-3zM570 183h3v3h-3zM582 183h3v3h-3zM588 183h3v3h-3zM600 183h3v3h-3zM606 183h3v3h-3zM618 183h3v3h-3zM630 183h3v3h-3zM642 183h3v3h-3zM654 183h3v3h-3zM666 183h3v3h-3zM678 183h3v3h-3zM699 183h12v3h-12zM714 183h3v3h-3zM726 183h3v3h-3zM735 183h9v3h-9zM570 186h3v3h-3zM582 186h3v3h-3zM588 186h3v3h-3zM597 186h6v3h-6zM606 186h3v3h-3zM618 186h3v3h-3zM630 186h3v3h-3zM642 186h3v3h-3zM654 186h3v3h-3zM666 186h3v3h-3zM678 186h3v3h-3zM696 186h3v3h-3zM708 186h3v3h-3zM714 186h3v3h-3zM726 186h3v3h-3zM744 186h3v3h-3zM570 189h3v3h-3zM582 189h3v3h-3zM591 189h6v3h-6zM600 189h3v3h-3zM609 189h12v3h-12zM627 189h9v3h-9zM645 189h9v3h-9zM666 189h3v3h-3zM678 189h3v3h-3zM699 189h12v3h-12zM714 189h3v3h-3zM726 189h3v3h-3zM732 189h12v3h-12z" fill="#DCE6F5"/><rect x="24" y="225" width="240" height="132" rx="6" fill="#19212E" stroke="#3A4A72" stroke-width="3"/><path d="M132 234h21v3h-21zM132 237h21v3h-21zM132 240h21v3h-21zM132 243h21v3h-21zM132 246h21v3h-21z" fill="#B0B7C4"/><path d="M117 240h15v3h-15zM153 240h15v3h-15zM117 243h15v3h-15zM153 243h15v3h-15zM117 246h15v3h-15zM153 246h15v3h-15zM117 249h6v3h-6zM162 249h6v3h-6zM117 252h6v3h-6zM162 252h6v3h-6zM117 255h6v3h-6zM162 255h6v3h-6zM117 258h6v3h-6zM162 258h6v3h-6zM117 261h6v3h-6zM162 261h6v3h-6zM117 264h6v3h-6zM162 264h6v3h-6zM117 267h6v3h-6zM162 267h6v3h-6zM117 270h6v3h-6zM162 270h6v3h-6zM117 273h6v3h-6zM162 273h6v3h-6zM117 276h6v3h-6zM162 276h6v3h-6zM117 279h6v3h-6zM162 279h6v3h-6zM117 282h6v3h-6zM162 282h6v3h-6zM117 285h6v3h-6zM162 285h6v3h-6zM117 288h6v3h-6zM162 288h6v3h-6zM117 291h6v3h-6zM162 291h6v3h-6zM117 294h51v3h-51zM117 297h51v3h-51z" fill="#8A6A45"/><path d="M123 249h39v3h-39zM123 252h39v3h-39zM123 255h39v3h-39zM123 258h6v3h-6zM156 258h6v3h-6zM123 261h39v3h-39zM123 264h39v3h-39zM123 267h6v3h-6zM156 267h6v3h-6zM123 270h39v3h-39zM123 273h39v3h-39zM123 276h6v3h-6zM156 276h6v3h-6zM123 279h39v3h-39zM123 282h6v3h-6zM144 282h18v3h-18zM123 285h6v3h-6zM144 285h18v3h-18zM123 288h39v3h-39zM123 291h39v3h-39z" fill="#F4F1E4"/><path d="M129 258h27v3h-27zM129 267h27v3h-27zM129 276h27v3h-27z" fill="#6B7686"/><path d="M129 282h15v3h-15zM129 285h15v3h-15z" fill="#4FA05A"/><path d="M132 231h21v3h-21zM129 234h3v3h-3zM153 234h3v3h-3zM117 237h15v3h-15zM153 237h15v3h-15zM114 240h3v3h-3zM168 240h3v3h-3zM114 243h3v3h-3zM168 243h3v3h-3zM114 246h3v3h-3zM168 246h3v3h-3zM114 249h3v3h-3zM168 249h3v3h-3zM114 252h3v3h-3zM168 252h3v3h-3zM114 255h3v3h-3zM168 255h3v3h-3zM114 258h3v3h-3zM168 258h3v3h-3zM114 261h3v3h-3zM168 261h3v3h-3zM114 264h3v3h-3zM168 264h3v3h-3zM114 267h3v3h-3zM168 267h3v3h-3zM114 270h3v3h-3zM168 270h3v3h-3zM114 273h3v3h-3zM168 273h3v3h-3zM114 276h3v3h-3zM168 276h3v3h-3zM114 279h3v3h-3zM168 279h3v3h-3zM114 282h3v3h-3zM168 282h3v3h-3zM114 285h3v3h-3zM168 285h3v3h-3zM114 288h3v3h-3zM168 288h3v3h-3zM114 291h3v3h-3zM168 291h3v3h-3zM114 294h3v3h-3zM168 294h3v3h-3zM114 297h3v3h-3zM168 297h3v3h-3zM117 300h51v3h-51z" fill="#22252E"/><path d="M81 321h3v3h-3zM117 321h3v3h-3zM135 321h15v3h-15zM192 321h6v3h-6zM81 324h3v3h-3zM117 324h3v3h-3zM135 324h3v3h-3zM195 324h3v3h-3zM81 327h3v3h-3zM102 327h9v3h-9zM117 327h12v3h-12zM135 327h3v3h-3zM153 327h3v3h-3zM165 327h3v3h-3zM174 327h9v3h-9zM195 327h3v3h-3zM81 330h3v3h-3zM111 330h3v3h-3zM117 330h3v3h-3zM129 330h3v3h-3zM135 330h12v3h-12zM153 330h3v3h-3zM165 330h3v3h-3zM183 330h3v3h-3zM195 330h3v3h-3zM81 333h3v3h-3zM102 333h12v3h-12zM117 333h3v3h-3zM129 333h3v3h-3zM135 333h3v3h-3zM153 333h3v3h-3zM165 333h3v3h-3zM174 333h12v3h-12zM195 333h3v3h-3zM81 336h3v3h-3zM99 336h3v3h-3zM111 336h3v3h-3zM117 336h3v3h-3zM129 336h3v3h-3zM135 336h3v3h-3zM156 336h3v3h-3zM162 336h3v3h-3zM171 336h3v3h-3zM183 336h3v3h-3zM195 336h3v3h-3zM81 339h15v3h-15zM102 339h12v3h-12zM117 339h12v3h-12zM135 339h15v3h-15zM159 339h3v3h-3zM174 339h12v3h-12zM192 339h9v3h-9z" fill="#DCE6F5"/><rect x="282" y="225" width="240" height="132" rx="6" fill="#19212E" stroke="#3A4A72" stroke-width="3"/><path d="M384 237h6v3h-6zM411 237h6v3h-6zM384 240h6v3h-6zM411 240h6v3h-6zM384 243h6v3h-6zM411 243h6v3h-6zM384 246h6v3h-6zM411 246h6v3h-6zM384 249h6v3h-6zM411 249h6v3h-6zM381 267h6v3h-6zM393 267h6v3h-6zM405 267h6v3h-6zM417 267h6v3h-6zM381 270h6v3h-6zM393 270h6v3h-6zM405 270h3v3h-3zM417 270h6v3h-6zM381 276h6v3h-6zM393 276h6v3h-6zM408 276h3v3h-3zM417 276h6v3h-6zM381 279h6v3h-6zM393 279h6v3h-6zM405 279h6v3h-6zM417 279h6v3h-6zM381 285h6v3h-6zM393 285h6v3h-6zM405 285h6v3h-6zM417 285h6v3h-6zM381 288h6v3h-6zM393 288h6v3h-6zM405 288h6v3h-6zM417 288h6v3h-6z" fill="#78829A"/><path d="M372 246h12v3h-12zM390 246h21v3h-21zM417 246h12v3h-12zM372 249h12v3h-12zM390 249h21v3h-21zM417 249h12v3h-12zM372 252h57v3h-57zM372 255h57v3h-57zM372 258h57v3h-57z" fill="#C4574B"/><path d="M372 261h57v3h-57zM372 264h57v3h-57zM372 267h9v3h-9zM387 267h6v3h-6zM399 267h6v3h-6zM423 267h6v3h-6zM372 270h9v3h-9zM387 270h6v3h-6zM399 270h6v3h-6zM423 270h6v3h-6zM372 273h30v3h-30zM414 273h15v3h-15zM372 276h9v3h-9zM387 276h6v3h-6zM399 276h3v3h-3zM411 276h6v3h-6zM423 276h6v3h-6zM372 279h9v3h-9zM387 279h6v3h-6zM399 279h6v3h-6zM411 279h6v3h-6zM423 279h6v3h-6zM372 282h57v3h-57zM372 285h9v3h-9zM387 285h6v3h-6zM399 285h6v3h-6zM411 285h6v3h-6zM423 285h6v3h-6zM372 288h9v3h-9zM387 288h6v3h-6zM399 288h6v3h-6zM411 288h6v3h-6zM423 288h6v3h-6zM372 291h57v3h-57zM372 294h57v3h-57z" fill="#F5F2E6"/><path d="M411 267h6v3h-6zM408 270h9v3h-9zM402 273h12v3h-12zM402 276h6v3h-6z" fill="#3F9E52"/><path d="M384 234h6v3h-6zM411 234h6v3h-6zM381 237h3v3h-3zM390 237h3v3h-3zM408 237h3v3h-3zM417 237h3v3h-3zM381 240h3v3h-3zM390 240h3v3h-3zM408 240h3v3h-3zM417 240h3v3h-3zM372 243h12v3h-12zM390 243h21v3h-21zM417 243h12v3h-12zM369 246h3v3h-3zM429 246h3v3h-3zM369 249h3v3h-3zM429 249h3v3h-3zM369 252h3v3h-3zM429 252h3v3h-3zM369 255h3v3h-3zM429 255h3v3h-3zM369 258h3v3h-3zM429 258h3v3h-3zM369 261h3v3h-3zM429 261h3v3h-3zM369 264h3v3h-3zM429 264h3v3h-3zM369 267h3v3h-3zM429 267h3v3h-3zM369 270h3v3h-3zM429 270h3v3h-3zM369 273h3v3h-3zM429 273h3v3h-3zM369 276h3v3h-3zM429 276h3v3h-3zM369 279h3v3h-3zM429 279h3v3h-3zM369 282h3v3h-3zM429 282h3v3h-3zM369 285h3v3h-3zM429 285h3v3h-3zM369 288h3v3h-3zM429 288h3v3h-3zM369 291h3v3h-3zM429 291h3v3h-3zM369 294h3v3h-3zM429 294h3v3h-3zM372 297h57v3h-57z" fill="#22252E"/><path d="M315 321h9v3h-9zM333 321h3v3h-3zM351 321h3v3h-3zM414 321h3v3h-3zM312 324h3v3h-3zM324 324h3v3h-3zM333 324h3v3h-3zM351 324h3v3h-3zM414 324h3v3h-3zM312 327h3v3h-3zM324 327h3v3h-3zM330 327h9v3h-9zM348 327h9v3h-9zM369 327h9v3h-9zM384 327h12v3h-12zM405 327h12v3h-12zM423 327h9v3h-9zM438 327h12v3h-12zM459 327h9v3h-9zM477 327h9v3h-9zM312 330h15v3h-15zM333 330h3v3h-3zM351 330h3v3h-3zM366 330h3v3h-3zM378 330h3v3h-3zM384 330h3v3h-3zM396 330h3v3h-3zM402 330h3v3h-3zM414 330h3v3h-3zM432 330h3v3h-3zM438 330h3v3h-3zM450 330h3v3h-3zM456 330h3v3h-3zM474 330h3v3h-3zM486 330h3v3h-3zM312 333h3v3h-3zM324 333h3v3h-3zM333 333h3v3h-3zM351 333h3v3h-3zM366 333h15v3h-15zM384 333h3v3h-3zM396 333h3v3h-3zM402 333h3v3h-3zM414 333h3v3h-3zM423 333h12v3h-12zM438 333h3v3h-3zM450 333h3v3h-3zM456 333h3v3h-3zM474 333h15v3h-15zM312 336h3v3h-3zM324 336h3v3h-3zM333 336h3v3h-3zM342 336h3v3h-3zM351 336h3v3h-3zM360 336h3v3h-3zM366 336h3v3h-3zM384 336h3v3h-3zM396 336h3v3h-3zM402 336h3v3h-3zM414 336h3v3h-3zM420 336h3v3h-3zM432 336h3v3h-3zM438 336h3v3h-3zM450 336h3v3h-3zM456 336h3v3h-3zM474 336h3v3h-3zM312 339h3v3h-3zM324 339h3v3h-3zM336 339h6v3h-6zM354 339h6v3h-6zM369 339h9v3h-9zM384 339h3v3h-3zM396 339h3v3h-3zM405 339h12v3h-12zM423 339h12v3h-12zM438 339h3v3h-3zM450 339h3v3h-3zM459 339h9v3h-9zM477 339h9v3h-9z" fill="#DCE6F5"/><rect x="540" y="225" width="240" height="132" rx="6" fill="#19212E" stroke="#3A4A72" stroke-width="3"/><path d="M633 243h42v3h-42zM633 246h42v3h-42zM633 249h12v3h-12zM648 249h27v3h-27zM633 252h9v3h-9zM651 252h24v3h-24zM633 255h6v3h-6zM654 255h21v3h-21zM633 258h9v3h-9zM651 258h24v3h-24zM633 261h12v3h-12zM648 261h27v3h-27zM633 264h42v3h-42zM633 267h42v3h-42zM633 270h42v3h-42zM633 273h42v3h-42zM633 276h42v3h-42zM633 279h57v3h-57zM654 282h33v3h-33zM657 285h27v3h-27zM660 288h21v3h-21zM663 291h15v3h-15zM666 294h9v3h-9zM669 297h3v3h-3z" fill="#D9A33C"/><path d="M645 249h3v3h-3zM642 252h9v3h-9zM639 255h15v3h-15zM642 258h9v3h-9zM645 261h3v3h-3z" fill="#F5F1E2"/><path d="M633 240h42v3h-42zM630 243h3v3h-3zM675 243h3v3h-3zM630 246h3v3h-3zM675 246h3v3h-3zM630 249h3v3h-3zM675 249h3v3h-3zM630 252h3v3h-3zM675 252h3v3h-3zM630 255h3v3h-3zM675 255h3v3h-3zM630 258h3v3h-3zM675 258h3v3h-3zM630 261h3v3h-3zM675 261h3v3h-3zM630 264h3v3h-3zM675 264h3v3h-3zM630 267h3v3h-3zM675 267h3v3h-3zM630 270h3v3h-3zM675 270h3v3h-3zM630 273h3v3h-3zM675 273h3v3h-3zM630 276h3v3h-3zM675 276h15v3h-15zM630 279h3v3h-3zM690 279h3v3h-3zM633 282h21v3h-21zM687 282h3v3h-3zM654 285h3v3h-3zM684 285h3v3h-3zM657 288h3v3h-3zM681 288h3v3h-3zM660 291h3v3h-3zM678 291h3v3h-3zM663 294h3v3h-3zM675 294h3v3h-3zM666 297h3v3h-3zM672 297h3v3h-3zM669 300h3v3h-3z" fill="#2A2214"/><path d="M582 321h12v3h-12zM618 321h6v3h-6zM654 321h12v3h-12zM693 321h3v3h-3zM579 324h3v3h-3zM621 324h3v3h-3zM651 324h3v3h-3zM579 327h3v3h-3zM600 327h9v3h-9zM621 327h3v3h-3zM636 327h9v3h-9zM651 327h3v3h-3zM669 327h12v3h-12zM690 327h6v3h-6zM705 327h12v3h-12zM726 327h9v3h-9zM582 330h9v3h-9zM609 330h3v3h-3zM621 330h3v3h-3zM633 330h3v3h-3zM645 330h3v3h-3zM654 330h9v3h-9zM669 330h3v3h-3zM681 330h3v3h-3zM693 330h3v3h-3zM705 330h3v3h-3zM717 330h3v3h-3zM723 330h3v3h-3zM735 330h3v3h-3zM591 333h3v3h-3zM600 333h12v3h-12zM621 333h3v3h-3zM633 333h15v3h-15zM663 333h3v3h-3zM669 333h3v3h-3zM681 333h3v3h-3zM693 333h3v3h-3zM705 333h3v3h-3zM717 333h3v3h-3zM723 333h15v3h-15zM591 336h3v3h-3zM597 336h3v3h-3zM609 336h3v3h-3zM621 336h3v3h-3zM633 336h3v3h-3zM663 336h3v3h-3zM669 336h3v3h-3zM681 336h3v3h-3zM693 336h3v3h-3zM705 336h12v3h-12zM723 336h3v3h-3zM579 339h12v3h-12zM600 339h12v3h-12zM618 339h9v3h-9zM636 339h9v3h-9zM651 339h12v3h-12zM669 339h3v3h-3zM681 339h3v3h-3zM690 339h9v3h-9zM705 339h3v3h-3zM726 339h9v3h-9zM705 342h3v3h-3z" fill="#DCE6F5"/><rect x="24" y="375" width="240" height="132" rx="6" fill="#19212E" stroke="#3A4A72" stroke-width="3"/><path d="M141 396h3v3h-3zM129 399h27v3h-27zM126 402h33v3h-33zM123 405h15v3h-15zM144 405h18v3h-18zM120 408h12v3h-12zM153 408h12v3h-12zM117 411h12v3h-12zM156 411h12v3h-12zM117 414h9v3h-9zM159 414h9v3h-9zM117 417h9v3h-9zM159 417h9v3h-9zM117 420h9v3h-9zM159 420h9v3h-9zM114 423h9v3h-9zM162 423h9v3h-9z" fill="#5FA35A"/><path d="M138 405h6v3h-6zM138 408h6v3h-6zM138 411h6v3h-6zM138 414h6v3h-6zM138 417h6v3h-6zM138 420h9v3h-9zM135 423h15v3h-15zM138 426h9v3h-9zM141 429h3v3h-3z" fill="#C4483C"/><path d="M132 408h6v3h-6zM144 408h9v3h-9zM129 411h9v3h-9zM144 411h12v3h-12zM126 414h12v3h-12zM144 414h15v3h-15zM126 417h12v3h-12zM144 417h15v3h-15zM126 420h12v3h-12zM147 420h12v3h-12zM123 423h12v3h-12zM150 423h12v3h-12zM126 426h12v3h-12zM147 426h12v3h-12zM126 429h15v3h-15zM144 429h15v3h-15zM126 432h33v3h-33z" fill="#F2F0E2"/><path d="M117 435h51v3h-51zM117 438h51v3h-51zM117 441h51v3h-51z" fill="#7C8796"/><path d="M141 393h3v3h-3zM129 396h12v3h-12zM144 396h12v3h-12zM126 399h3v3h-3zM156 399h3v3h-3zM123 402h3v3h-3zM159 402h3v3h-3zM120 405h3v3h-3zM162 405h3v3h-3zM117 408h3v3h-3zM165 408h3v3h-3zM114 411h3v3h-3zM168 411h3v3h-3zM114 414h3v3h-3zM168 414h3v3h-3zM114 417h3v3h-3zM168 417h3v3h-3zM114 420h3v3h-3zM168 420h3v3h-3zM111 423h3v3h-3zM171 423h3v3h-3zM114 426h12v3h-12zM159 426h12v3h-12zM123 429h3v3h-3zM159 429h3v3h-3zM117 432h9v3h-9zM159 432h9v3h-9zM114 435h3v3h-3zM168 435h3v3h-3zM114 438h3v3h-3zM168 438h3v3h-3zM114 441h3v3h-3zM168 441h3v3h-3zM117 444h51v3h-51z" fill="#1E2A20"/><path d="M48 471h9v3h-9zM99 471h3v3h-3zM156 471h9v3h-9zM45 474h3v3h-3zM57 474h3v3h-3zM99 474h3v3h-3zM153 474h3v3h-3zM165 474h3v3h-3zM45 477h3v3h-3zM66 477h9v3h-9zM81 477h3v3h-3zM87 477h6v3h-6zM99 477h12v3h-12zM120 477h9v3h-9zM135 477h12v3h-12zM153 477h3v3h-3zM174 477h9v3h-9zM189 477h3v3h-3zM201 477h3v3h-3zM210 477h12v3h-12zM228 477h9v3h-9zM45 480h3v3h-3zM75 480h3v3h-3zM81 480h6v3h-6zM93 480h3v3h-3zM99 480h3v3h-3zM111 480h3v3h-3zM117 480h3v3h-3zM129 480h3v3h-3zM135 480h3v3h-3zM147 480h3v3h-3zM153 480h3v3h-3zM159 480h9v3h-9zM183 480h3v3h-3zM189 480h3v3h-3zM201 480h3v3h-3zM207 480h3v3h-3zM219 480h3v3h-3zM225 480h3v3h-3zM237 480h3v3h-3zM45 483h3v3h-3zM66 483h12v3h-12zM81 483h3v3h-3zM99 483h3v3h-3zM111 483h3v3h-3zM117 483h3v3h-3zM129 483h3v3h-3zM135 483h3v3h-3zM147 483h3v3h-3zM153 483h3v3h-3zM165 483h3v3h-3zM174 483h12v3h-12zM189 483h3v3h-3zM201 483h3v3h-3zM207 483h3v3h-3zM219 483h3v3h-3zM225 483h15v3h-15zM45 486h3v3h-3zM57 486h3v3h-3zM63 486h3v3h-3zM75 486h3v3h-3zM81 486h3v3h-3zM99 486h3v3h-3zM111 486h3v3h-3zM117 486h3v3h-3zM129 486h3v3h-3zM135 486h3v3h-3zM147 486h3v3h-3zM153 486h3v3h-3zM165 486h3v3h-3zM171 486h3v3h-3zM183 486h3v3h-3zM189 486h3v3h-3zM198 486h6v3h-6zM210 486h12v3h-12zM225 486h3v3h-3zM48 489h9v3h-9zM66 489h12v3h-12zM81 489h3v3h-3zM99 489h12v3h-12zM120 489h9v3h-9zM135 489h3v3h-3zM147 489h3v3h-3zM156 489h9v3h-9zM174 489h12v3h-12zM192 489h6v3h-6zM201 489h3v3h-3zM219 489h3v3h-3zM228 489h9v3h-9zM210 492h9v3h-9z" fill="#DCE6F5"/></svg>